<svg xmlns="http://www.w3.org/2000/svg" viewBox="0 0 64 64" fill="none" role="img" aria-label="ResumeForge">
  <rect width="64" height="64" rx="14" fill="#0C3B3A"/>
  <path d="M18 16h20c4.4 0 8 3.6 8 8v2c0 3.3-2 6.2-5 7.4 3 1.3 5 4.2 5 7.6v2c0 4.4-3.6 8-8 8H18V16z" fill="#1FA2A0" opacity="0.35"/>
  <path d="M20 20h16c2.2 0 4 1.8 4 4v1.5c0 2.2-1.8 4-4 4H20V20zm0 14.5h17c2.2 0 4 1.8 4 4V44c0 2.2-1.8 4-4 4H20V34.5z" fill="#F0FDFC"/>
  <path d="M24 24.5h8M24 39h10" stroke="#0C3B3A" stroke-width="2" stroke-linecap="round"/>
  <circle cx="46" cy="46" r="9" fill="#F0B429"/>
  <path d="M43 46.2l2.1 2.1 4.2-4.5" stroke="#0C3B3A" stroke-width="2" stroke-linecap="round" stroke-linejoin="round"/>
</svg>
